<svg width="113" height="31" viewBox="0 0 113 31" fill="none" xmlns="http://www.w3.org/2000/svg">
<rect width="28" height="31" rx="8" fill="#F44331"/>
<path d="M6.64844 8.24219C7.14844 8.36719 7.625 8.46094 8.07812 8.52344C8.53125 8.58594 8.92969 8.63281 9.27344 8.66406C9.67969 8.71094 10.0547 8.72656 10.3984 8.71094C10.8359 8.71094 11.3828 8.67188 12.0391 8.59375C12.7109 8.51562 13.3984 8.44531 14.1016 8.38281C14.8047 8.30469 15.4766 8.25781 16.1172 8.24219C16.7734 8.21094 17.3047 8.25 17.7109 8.35938C18.1172 8.45312 18.5312 8.60156 18.9531 8.80469C19.3906 8.99219 19.7891 9.23438 20.1484 9.53125C20.5078 9.8125 20.8047 10.1484 21.0391 10.5391C21.2734 10.9141 21.4062 11.3438 21.4375 11.8281C21.4219 12.4375 21.2812 13.0078 21.0156 13.5391C20.7969 13.9922 20.4297 14.4609 19.9141 14.9453C19.3984 15.4141 18.6562 15.7734 17.6875 16.0234C18.1719 16.0859 18.5859 16.1953 18.9297 16.3516C19.2891 16.4922 19.5938 16.6641 19.8438 16.8672C20.1094 17.0547 20.3203 17.2656 20.4766 17.5C20.6484 17.7344 20.7812 17.9688 20.875 18.2031C21.1094 18.75 21.2188 19.3594 21.2031 20.0312C21.1094 20.9062 20.9297 21.6016 20.6641 22.1172C20.4141 22.6328 20.125 23.0312 19.7969 23.3125C19.4688 23.5938 19.1328 23.7891 18.7891 23.8984C18.4453 24.0078 18.1328 24.0938 17.8516 24.1562C17.5703 24.2188 17.2266 24.25 16.8203 24.25C16.4141 24.25 15.9766 24.2422 15.5078 24.2266C15.0547 24.1953 14.5859 24.1719 14.1016 24.1562C13.6172 24.125 13.1562 24.125 12.7188 24.1562C12.3594 24.1875 11.9219 24.2188 11.4062 24.25C10.9688 24.2812 10.4219 24.3203 9.76562 24.3672C9.10938 24.3984 8.34375 24.4375 7.46875 24.4844C7.64062 24.3594 7.78125 24.2188 7.89062 24.0625C8.01562 23.8906 8.11719 23.7422 8.19531 23.6172C8.27344 23.4609 8.34375 23.3125 8.40625 23.1719C8.45312 23.0469 8.49219 22.7031 8.52344 22.1406C8.55469 21.5781 8.57812 20.9062 8.59375 20.125C8.60938 19.3281 8.61719 18.4766 8.61719 17.5703C8.63281 16.6484 8.625 15.7656 8.59375 14.9219C8.57812 14.0625 8.54688 13.3047 8.5 12.6484C8.46875 11.9766 8.42188 11.4922 8.35938 11.1953C8.26562 10.8672 8.14062 10.5312 7.98438 10.1875C7.85938 9.89062 7.67969 9.57031 7.44531 9.22656C7.22656 8.88281 6.96094 8.55469 6.64844 8.24219ZM11.5938 10.6328C11.5938 10.6953 11.6016 10.9062 11.6172 11.2656C11.6328 11.5781 11.6484 12.0625 11.6641 12.7188C11.6953 13.3594 11.7344 14.2734 11.7812 15.4609C12.1719 15.6328 12.5547 15.7266 12.9297 15.7422C13.3047 15.7422 13.6406 15.7266 13.9375 15.6953C14.2812 15.6484 14.6094 15.5703 14.9219 15.4609C15.3438 15.2891 15.6719 15.0078 15.9062 14.6172C16.1562 14.2266 16.3203 13.8203 16.3984 13.3984C16.4922 12.9609 16.5156 12.5547 16.4688 12.1797C16.4219 11.7891 16.3203 11.5078 16.1641 11.3359C15.8672 11.0703 15.5 10.8516 15.0625 10.6797C14.6875 10.5391 14.2109 10.4453 13.6328 10.3984C13.0703 10.3359 12.3906 10.4141 11.5938 10.6328ZM11.4766 21.7422C12.0547 22.0391 12.5625 22.2344 13 22.3281C13.4375 22.4219 13.8047 22.4688 14.1016 22.4688C14.4453 22.4688 14.7422 22.4219 14.9922 22.3281C15.2891 22.1875 15.5781 22 15.8594 21.7656C16.1562 21.5156 16.375 21.2266 16.5156 20.8984C16.6719 20.5547 16.7344 20.1797 16.7031 19.7734C16.6719 19.3516 16.4922 18.8906 16.1641 18.3906C15.8672 18.0312 15.5078 17.75 15.0859 17.5469C14.7109 17.375 14.2344 17.2656 13.6562 17.2188C13.0938 17.1719 12.3984 17.3047 11.5703 17.6172L11.4766 21.7422Z" fill="white"/>
<path d="M28.1266 9.13281C28.9078 9.17969 29.5641 9.21875 30.0953 9.25C30.6422 9.26562 31.0953 9.28125 31.4547 9.29688C31.8609 9.3125 32.2047 9.3125 32.4859 9.29688C32.7672 9.28125 33.15 9.24219 33.6344 9.17969C34.0406 9.13281 34.5797 9.0625 35.2516 8.96875C35.9391 8.85938 36.7906 8.71875 37.8062 8.54688C37.4469 8.90625 37.1656 9.23438 36.9625 9.53125C36.775 9.8125 36.6266 10.0547 36.5172 10.2578C36.3922 10.5078 36.3062 10.7188 36.2594 10.8906C36.2281 11.0469 36.2594 11.4375 36.3531 12.0625C36.4469 12.6875 36.5797 13.4297 36.7516 14.2891C36.9234 15.1328 37.1109 16.0391 37.3141 17.0078C37.5172 17.9609 37.7203 18.8594 37.9234 19.7031C38.1266 20.5312 38.3062 21.2422 38.4625 21.8359C38.6344 22.4141 38.7594 22.7578 38.8375 22.8672C39.0719 23.1953 39.2203 23.4141 39.2828 23.5234C39.3453 23.6172 39.4547 23.7031 39.6109 23.7812C39.6734 23.8125 39.775 23.8594 39.9156 23.9219C40.0406 23.9844 40.2047 24.0625 40.4078 24.1562C40.6266 24.25 40.9 24.3594 41.2281 24.4844C40.6187 24.5156 40.0953 24.5391 39.6578 24.5547C39.2203 24.5547 38.8609 24.5625 38.5797 24.5781C38.2516 24.5938 37.9703 24.6094 37.7359 24.625C37.5016 24.625 37.2203 24.6406 36.8922 24.6719C36.6109 24.7031 36.2437 24.7344 35.7906 24.7656C35.3531 24.7969 34.8375 24.8281 34.2437 24.8594C34.5562 24.6406 34.8062 24.4453 34.9937 24.2734C35.1969 24.0859 35.3531 23.9297 35.4625 23.8047C35.5875 23.6484 35.6734 23.5078 35.7203 23.3828C35.7516 23.2422 35.775 23.0312 35.7906 22.75C35.8062 22.5 35.8062 22.1719 35.7906 21.7656C35.775 21.3438 35.7359 20.7969 35.6734 20.125L29.5094 20.7578C29.3531 21.0234 29.2359 21.2578 29.1578 21.4609C29.0797 21.6484 29.025 21.8125 28.9937 21.9531C28.9469 22.125 28.9312 22.2656 28.9469 22.375C28.9781 22.5 29.0328 22.6484 29.1109 22.8203C29.1891 22.9766 29.2984 23.1641 29.4391 23.3828C29.5953 23.5859 29.8219 23.8281 30.1187 24.1094C29.7281 24.0938 29.3297 24.0859 28.9234 24.0859C28.5172 24.0859 28.1422 24.0938 27.7984 24.1094C27.3922 24.125 26.9937 24.1406 26.6031 24.1562C26.2125 24.1719 25.7672 24.1953 25.2672 24.2266C24.8453 24.2578 24.3531 24.2969 23.7906 24.3438C23.2125 24.375 22.5953 24.4219 21.9391 24.4844C22.3453 24.2969 22.6891 24.1094 22.9703 23.9219C23.2516 23.7188 23.4859 23.5312 23.6734 23.3594C23.8922 23.1719 24.0797 22.9922 24.2359 22.8203C24.3453 22.6641 24.5641 22.3047 24.8922 21.7422C25.2203 21.1641 25.5875 20.4844 25.9937 19.7031C26.4156 18.9219 26.8531 18.0859 27.3062 17.1953C27.775 16.3047 28.1969 15.4688 28.5719 14.6875C28.9469 13.8906 29.2516 13.2031 29.4859 12.625C29.7203 12.0469 29.8375 11.6719 29.8375 11.5C29.8062 11.2969 29.7281 11.0703 29.6031 10.8203C29.4937 10.6016 29.3219 10.3516 29.0875 10.0703C28.8687 9.78906 28.5484 9.47656 28.1266 9.13281ZM35.3922 18.3906C35.2984 17.8438 35.2125 17.375 35.1344 16.9844C35.0562 16.5781 34.9937 16.2422 34.9469 15.9766C34.8844 15.6641 34.8375 15.3906 34.8062 15.1562C34.7594 14.9375 34.7047 14.6562 34.6422 14.3125C34.5797 14.0156 34.5016 13.6484 34.4078 13.2109C34.3297 12.7578 34.2281 12.2188 34.1031 11.5938C33.2125 13.375 32.5172 14.7578 32.0172 15.7422C31.5328 16.7109 31.1812 17.4219 30.9625 17.875C30.6969 18.4062 30.5484 18.7188 30.5172 18.8125L35.3922 18.3906ZM42.9484 8.26562C43.4797 8.34375 43.9484 8.39844 44.3547 8.42969C44.7766 8.46094 45.1281 8.49219 45.4094 8.52344C45.7375 8.55469 46.0187 8.57031 46.2531 8.57031H47.1672C47.7766 8.57031 48.7844 8.54688 50.1906 8.5C49.8469 8.60938 49.5578 8.76562 49.3234 8.96875C49.1047 9.17188 48.925 9.38281 48.7844 9.60156C48.6125 9.85156 48.4875 10.1094 48.4094 10.375C48.3156 10.7031 48.2297 11.1406 48.1516 11.6875C48.0734 12.1719 47.9953 12.8047 47.9172 13.5859C47.8547 14.3672 47.7922 15.3438 47.7297 16.5156C48.4016 15.75 48.9875 15.0703 49.4875 14.4766C50.0031 13.8828 50.4484 13.3594 50.8234 12.9062C51.1984 12.4531 51.5109 12.0625 51.7609 11.7344C52.0266 11.4062 52.2453 11.125 52.4172 10.8906C52.8234 10.3594 53.0578 10 53.1203 9.8125C53.1359 9.70312 53.1281 9.57031 53.0969 9.41406C53.0656 9.28906 53.0187 9.14062 52.9562 8.96875C52.8937 8.78125 52.8 8.57812 52.675 8.35938C53.3 8.39062 53.8312 8.41406 54.2687 8.42969C54.7219 8.44531 55.0969 8.46094 55.3937 8.47656C55.7375 8.49219 56.0187 8.5 56.2375 8.5H57.2219C57.5812 8.5 58.05 8.5 58.6281 8.5C59.2062 8.48438 59.9328 8.46875 60.8078 8.45312C60.2297 8.59375 59.6828 8.78125 59.1672 9.01562C58.6516 9.25 58.1906 9.47656 57.7844 9.69531C57.3156 9.96094 56.8781 10.2344 56.4719 10.5156C56.0656 10.8281 55.6125 11.1953 55.1125 11.6172C54.6906 11.9766 54.1984 12.4219 53.6359 12.9531C53.0734 13.4688 52.4641 14.0703 51.8078 14.7578C52.5109 16.1328 53.1203 17.2656 53.6359 18.1562C54.1672 19.0312 54.6125 19.7344 54.9719 20.2656C55.3781 20.8906 55.7219 21.3672 56.0031 21.6953C56.2844 21.9922 56.6125 22.2969 56.9875 22.6094C57.3 22.875 57.6906 23.1719 58.1594 23.5C58.6281 23.8125 59.1672 24.1172 59.7766 24.4141L53.0969 24.7422C53.1906 24.6172 53.2453 24.4688 53.2609 24.2969C53.2922 24.1094 53.3078 23.9375 53.3078 23.7812C53.3078 23.6094 53.2922 23.4219 53.2609 23.2188C53.1984 22.9688 53.0344 22.5625 52.7687 22C52.55 21.5156 52.2141 20.8359 51.7609 19.9609C51.3078 19.0703 50.6828 17.8984 49.8859 16.4453L47.8937 18.5312C47.8156 19.0312 47.7766 19.4844 47.7766 19.8906C47.7766 20.2969 47.7922 20.6328 47.8234 20.8984C47.8703 21.2266 47.9328 21.5078 48.0109 21.7422C48.1047 21.9766 48.2375 22.2422 48.4094 22.5391C48.55 22.8047 48.7375 23.1172 48.9719 23.4766C49.2062 23.8359 49.5031 24.2344 49.8625 24.6719C49.5031 24.5781 49.1437 24.5156 48.7844 24.4844C48.425 24.4375 48.0969 24.4062 47.8 24.3906C47.4562 24.375 47.1281 24.3828 46.8156 24.4141C46.4875 24.4453 46.1047 24.4922 45.6672 24.5547C45.2922 24.6172 44.8312 24.6953 44.2844 24.7891C43.7375 24.8828 43.1125 25 42.4094 25.1406C42.7531 24.9375 43.0266 24.7188 43.2297 24.4844C43.4328 24.25 43.5969 24.0234 43.7219 23.8047C43.8625 23.5547 43.9562 23.3125 44.0031 23.0781C44.0344 22.875 44.0578 22.4375 44.0734 21.7656C44.1047 21.0938 44.1203 20.3125 44.1203 19.4219C44.1359 18.5156 44.1359 17.5625 44.1203 16.5625C44.1047 15.5625 44.0891 14.625 44.0734 13.75C44.0578 12.875 44.0344 12.1328 44.0031 11.5234C43.9875 10.8984 43.9719 10.5156 43.9562 10.375C43.9094 10.1562 43.8469 9.92188 43.7687 9.67188C43.6906 9.45312 43.5812 9.22656 43.4406 8.99219C43.3156 8.74219 43.1516 8.5 42.9484 8.26562ZM75.3953 7.84375C75.1766 8.34375 74.9813 8.78125 74.8094 9.15625C74.6375 9.53125 74.4891 9.85156 74.3641 10.1172C74.2234 10.4141 74.1063 10.6797 74.0125 10.9141C73.9344 11.0859 73.8328 11.3203 73.7078 11.6172C73.5828 11.8828 73.4266 12.2344 73.2391 12.6719C73.0672 13.0938 72.8406 13.6406 72.5594 14.3125C72.4188 13.7344 72.2469 13.2266 72.0438 12.7891C71.8406 12.3516 71.6219 11.9688 71.3875 11.6406C71.1531 11.3125 70.9031 11.0469 70.6375 10.8438C70.3875 10.625 70.1375 10.4453 69.8875 10.3047C69.3094 9.99219 68.7 9.82031 68.0594 9.78906C67.2156 9.83594 66.5516 9.97656 66.0672 10.2109C65.5984 10.4297 65.2547 10.6875 65.0359 10.9844C64.8172 11.2656 64.7 11.5625 64.6844 11.875C64.6688 12.1719 64.7078 12.4219 64.8016 12.625C64.8797 12.8125 65.1531 13.0312 65.6219 13.2812C66.1063 13.5312 66.6844 13.8203 67.3563 14.1484C68.0438 14.4609 68.7781 14.8203 69.5594 15.2266C70.3406 15.6172 71.0594 16.0547 71.7156 16.5391C72.3875 17.0078 72.95 17.5234 73.4031 18.0859C73.8719 18.6328 74.1297 19.2188 74.1766 19.8438C74.2234 20.6406 74.2156 21.3594 74.1531 22C74.0906 22.6406 73.8719 23.1875 73.4969 23.6406C73.1219 24.0938 72.5359 24.4531 71.7391 24.7188C70.9578 24.9844 69.8719 25.1484 68.4813 25.2109C67.0438 25.2734 65.8641 25.1953 64.9422 24.9766C64.0203 24.7578 63.2703 24.4609 62.6922 24.0859C62.1297 23.7109 61.7078 23.2969 61.4266 22.8438C61.1609 22.3906 60.9656 21.9609 60.8406 21.5547C60.7156 21.1328 60.6297 20.7734 60.5828 20.4766C60.5359 20.1641 60.4578 19.9766 60.3484 19.9141C60.2234 19.8359 60.0984 19.7656 59.9734 19.7031C59.8641 19.6406 59.7469 19.5859 59.6219 19.5391C59.4969 19.4766 59.3719 19.4219 59.2469 19.375L66.0672 18.2734C65.6766 18.5859 65.3719 18.875 65.1531 19.1406C64.95 19.4062 64.7938 19.6406 64.6844 19.8438C64.5594 20.0781 64.4734 20.2969 64.4266 20.5C64.3953 20.7188 64.4656 20.9922 64.6375 21.3203C64.8094 21.6484 65.0438 21.9688 65.3406 22.2812C65.6531 22.5781 66.0125 22.8281 66.4188 23.0312C66.825 23.2344 67.2469 23.3203 67.6844 23.2891C68.2313 23.2422 68.6766 23.1094 69.0203 22.8906C69.3641 22.6562 69.6219 22.3672 69.7938 22.0234C69.9813 21.6797 70.0906 21.3047 70.1219 20.8984C70.1531 20.4922 70.1141 20.0938 70.0047 19.7031C69.9109 19.2969 69.7547 18.9219 69.5359 18.5781C69.3172 18.2188 69.0594 17.9219 68.7625 17.6875C68.4969 17.5 68.0828 17.3203 67.5203 17.1484C66.9734 16.9766 66.3563 16.7891 65.6688 16.5859C64.9969 16.3828 64.3016 16.1484 63.5828 15.8828C62.8797 15.6172 62.2391 15.2891 61.6609 14.8984C61.0984 14.5078 60.6453 14.0469 60.3016 13.5156C59.9734 12.9844 59.8484 12.3438 59.9266 11.5938C59.9891 10.9531 60.1922 10.4219 60.5359 10C60.8953 9.5625 61.3406 9.21875 61.8719 8.96875C62.4188 8.70312 63.0203 8.50781 63.6766 8.38281C64.3484 8.25781 65.0281 8.1875 65.7156 8.17188C66.4188 8.14062 67.1063 8.14844 67.7781 8.19531C68.4656 8.24219 69.0828 8.29688 69.6297 8.35938C70.1766 8.42188 70.6375 8.48438 71.0125 8.54688C71.4031 8.59375 71.6453 8.625 71.7391 8.64062C72.1453 8.67188 72.5516 8.66406 72.9578 8.61719C73.3172 8.58594 73.7078 8.51562 74.1297 8.40625C74.5672 8.28125 74.9891 8.09375 75.3953 7.84375ZM85.2719 7.32812C86.1156 7.35938 86.9672 7.51562 87.8266 7.79688C88.7016 8.0625 89.5062 8.5 90.2406 9.10938C90.975 9.70312 91.6 10.4766 92.1156 11.4297C92.6312 12.3672 92.9516 13.5156 93.0766 14.875C93.1859 15.9844 93.0453 17.0859 92.6547 18.1797C92.2797 19.2578 91.7562 20.25 91.0844 21.1562C90.4125 22.0625 89.6391 22.8359 88.7641 23.4766C87.8891 24.1016 87.0141 24.5156 86.1391 24.7188C85.6078 24.8438 85.0219 24.8594 84.3812 24.7656C83.7562 24.6562 83.1156 24.4609 82.4594 24.1797C81.8187 23.8828 81.1859 23.5078 80.5609 23.0547C79.9516 22.6016 79.3969 22.0859 78.8969 21.5078C78.3969 20.9141 77.975 20.2734 77.6312 19.5859C77.3031 18.8984 77.1 18.1797 77.0219 17.4297C76.9437 16.8047 76.9359 16.1172 76.9984 15.3672C77.0766 14.6016 77.225 13.8438 77.4437 13.0938C77.6781 12.3281 77.9984 11.5938 78.4047 10.8906C78.8266 10.1719 79.3578 9.54688 79.9984 9.01562C80.6391 8.46875 81.3891 8.04688 82.2484 7.75C83.1234 7.4375 84.1312 7.29687 85.2719 7.32812ZM81.0766 16.8203C80.8578 18.4922 81.0141 19.8359 81.5453 20.8516C82.0922 21.8672 82.9125 22.4844 84.0062 22.7031C84.5375 22.8125 85.0453 22.7031 85.5297 22.375C86.0297 22.0312 86.4828 21.5391 86.8891 20.8984C87.2953 20.2578 87.6469 19.5078 87.9437 18.6484C88.2406 17.7891 88.4594 16.8906 88.6 15.9531C88.7406 15.0156 88.7484 14.1719 88.6234 13.4219C88.5141 12.6562 88.3187 12.0078 88.0375 11.4766C87.7562 10.9297 87.4125 10.5078 87.0062 10.2109C86.6156 9.91406 86.2094 9.75 85.7875 9.71875C85.0531 9.67188 84.4125 9.86719 83.8656 10.3047C83.3187 10.7266 82.8578 11.2812 82.4828 11.9688C82.1078 12.6562 81.8031 13.4297 81.5687 14.2891C81.35 15.1484 81.1859 15.9922 81.0766 16.8203Z" fill="#272727"/>
<path d="M98.5469 22.4219C99.1094 22.3438 99.5469 22.4375 99.8594 22.7031C100.188 22.9688 100.344 23.3359 100.328 23.8047C100.312 24.0391 100.266 24.2266 100.188 24.3672C100.109 24.5078 100 24.6172 99.8594 24.6953C99.7344 24.7578 99.5781 24.8125 99.3906 24.8594C99.2188 24.8906 99.0156 24.9219 98.7812 24.9531C98.5469 25 98.3203 24.9922 98.1016 24.9297C97.8828 24.8516 97.6875 24.7422 97.5156 24.6016C97.3438 24.4609 97.2031 24.3047 97.0938 24.1328C97 23.9609 96.9531 23.7891 96.9531 23.6172C96.9531 23.4297 97 23.2734 97.0938 23.1484C97.2031 23.0078 97.3359 22.8906 97.4922 22.7969C97.6641 22.6875 97.8359 22.6094 98.0078 22.5625C98.1953 22.5 98.375 22.4531 98.5469 22.4219Z" fill="#D11515"/>
</svg>
